<svg xmlns="http://www.w3.org/2000/svg" width="26.016" height="24.713" viewBox="0 0 26.016 24.713"><defs><style>.a{fill:#707070;}</style></defs><g transform="translate(-0.001 -12.813)"><g transform="translate(0.001 12.813)"><g transform="translate(0)"><path class="a" d="M24.911,12.813H6.739a1.107,1.107,0,0,0-1.106,1.106v5.012L4.8,17.685a1.285,1.285,0,0,0-1.735-.39l-1.71,1.028A2.508,2.508,0,0,0,.212,19.809C-.412,22.08.051,25.992,5.793,31.735c4.567,4.562,7.972,5.791,10.319,5.791a6.059,6.059,0,0,0,1.609-.21,2.513,2.513,0,0,0,1.487-1.145l1.027-1.711a1.285,1.285,0,0,0-.39-1.733L15.75,30a1.292,1.292,0,0,0-1.73.281l-1.192,1.532a.415.415,0,0,1-.531.112l-.227-.125a13.634,13.634,0,0,1-3.552-2.79c-.2-.2-.387-.393-.559-.575H24.911a1.105,1.105,0,0,0,1.106-1.1V13.919A1.107,1.107,0,0,0,24.911,12.813ZM11.656,32.561l.22.121a1.278,1.278,0,0,0,1.637-.337l1.192-1.532a.422.422,0,0,1,.564-.092l4.094,2.729a.419.419,0,0,1,.127.564l-1.027,1.711a1.648,1.648,0,0,1-.972.755c-2.05.564-5.638.087-11.084-5.359S.487,22.086,1.049,20.038a1.648,1.648,0,0,1,.754-.972l1.711-1.027a.419.419,0,0,1,.564.127l2.73,4.094a.421.421,0,0,1-.092.564L5.185,24.016a1.277,1.277,0,0,0-.337,1.637l.121.22a14.378,14.378,0,0,0,2.938,3.75A14.406,14.406,0,0,0,11.656,32.561Zm13.493-5.227a.237.237,0,0,1-.239.234H7.178a10.938,10.938,0,0,1-1.447-2.11l-.125-.228a.414.414,0,0,1,.112-.53L7.25,23.509a1.292,1.292,0,0,0,.281-1.73L6.5,20.233V13.919a.236.236,0,0,1,.239-.239H24.911a.236.236,0,0,1,.239.239V27.334Z" transform="translate(-0.001 -12.813)"/><path class="a" d="M164.192,50.676l-7.249,5.5a.585.585,0,0,1-.688,0l-7.246-5.5a.434.434,0,1,0-.524.691l7.247,5.5a1.46,1.46,0,0,0,1.735,0l7.249-5.5a.434.434,0,0,0-.524-.691Z" transform="translate(-140.776 -48.668)"/><path class="a" d="M153.369,172.532l-4.443,4.758a.434.434,0,0,0,.635.592l4.443-4.76a.434.434,0,0,0-.635-.589Z" transform="translate(-141.247 -164.299)"/><path class="a" d="M370.7,172.216a.434.434,0,1,0-.634.592l4.442,4.758a.434.434,0,1,0,.634-.592Z" transform="translate(-351.149 -163.984)"/></g></g></g></svg>