<svg xmlns="http://www.w3.org/2000/svg" width="26.215" height="31.582" viewBox="0 0 26.215 31.582"><defs><style>.a{fill:#707070;}</style></defs><g transform="translate(-43.5)"><g transform="translate(49.304 3.785)"><g transform="translate(0)"><path class="a" d="M114.49,65.193A8.756,8.756,0,1,1,128.2,76.035l-1.333,1.808a.463.463,0,0,1-.745-.549l1.346-1.826a.434.434,0,0,1,.029-.035,7.9,7.9,0,0,0-.291-10.879,7.731,7.731,0,0,0-5.489-2.27h-.04a7.792,7.792,0,0,0-6.418,3.428.463.463,0,1,1-.766-.519Z" transform="translate(-114.41 -61.358)"/></g></g><g transform="translate(47.874 9.13)"><path class="a" d="M204.473,392h0Z" transform="translate(-192.555 -376.951)"/><path class="a" d="M177.071,148.3a.463.463,0,1,1,.865.327,7.937,7.937,0,0,0,1.525,8.112.444.444,0,0,1,.03.036l.31.422,1.105,1.5a.462.462,0,0,1,.029.045,22.071,22.071,0,0,1,1.545,3.383h5.506c.212-.589.449-1.174.707-1.742a.463.463,0,0,1,.842.383c-.228.5-.416.967-.565,1.359H189a.463.463,0,0,1,.463.463v1.388h.216a.463.463,0,0,1,.463.463v1.85a.463.463,0,0,1-.463.463h-.216v1.388a.463.463,0,0,1-.463.463h-.306l-.325,1.487a.463.463,0,0,1-.452.364h-5.36a.463.463,0,0,1-.452-.364l-.324-1.487h-.306a.463.463,0,0,1-.463-.463v-1.388h-.216a.463.463,0,0,1-.463-.463v-1.85a.463.463,0,0,1,.463-.463h.216v-1.388a.463.463,0,0,1,.463-.463h.024a20.873,20.873,0,0,0-1.349-2.9l-1.089-1.479-.3-.4a8.862,8.862,0,0,1-1.689-9.043Zm5.855,21.228h4.615l.2-.925h-5.019Zm-.992-1.851h6.6v-.925h-6.6Zm-.679-2.776v.925h7.957v-.925h-1.994a.463.463,0,1,1,0-.925h1.316v-.925h-6.6v.925h3.3a.463.463,0,1,1,0,.925Z" transform="translate(-176.5 -148.006)"/><path class="a" d="M305.959,392h0Z" transform="translate(-300.415 -376.951)"/></g><g transform="translate(56.145)"><g transform="translate(0)"><path class="a" d="M248.963,0a.463.463,0,0,1,.463.463V2.579a.463.463,0,0,1-.925,0V.463A.463.463,0,0,1,248.963,0Z" transform="translate(-248.5)"/></g></g><g transform="translate(61.409 1.695)"><g transform="translate(0)"><path class="a" d="M146.061,29.537l1.058-1.833a.463.463,0,1,1,.8.463L146.862,30a.463.463,0,1,1-.8-.463Z" transform="translate(-145.999 -27.473)"/></g></g><g transform="translate(65.263 6.316)"><g transform="translate(0)"><path class="a" d="M71.195,103.518l1.833-1.058a.463.463,0,1,1,.463.8l-1.833,1.058a.463.463,0,1,1-.463-.8Z" transform="translate(-70.964 -102.397)"/></g></g><g transform="translate(45.194 17.903)"><g transform="translate(0)"><path class="a" d="M396.552,291.363l1.833-1.058a.463.463,0,1,1,.463.8l-1.833,1.058a.463.463,0,0,1-.463-.8Z" transform="translate(-396.321 -290.243)"/></g></g><g transform="translate(66.674 12.627)"><g transform="translate(0)"><path class="a" d="M43.963,204.7h2.116a.463.463,0,1,1,0,.925H43.963a.463.463,0,1,1,0-.925Z" transform="translate(-43.5 -204.7)"/></g></g><g transform="translate(43.5 12.627)"><path class="a" d="M419.653,204.7h2.116a.463.463,0,0,1,0,.925h-2.116a.463.463,0,1,1,0-.925Z" transform="translate(-419.19 -204.7)"/></g><g transform="translate(65.263 17.876)"><g transform="translate(0)"><path class="a" d="M71.026,290.04a.463.463,0,0,1,.632-.169l1.833,1.058a.463.463,0,1,1-.463.8L71.2,290.672A.463.463,0,0,1,71.026,290.04Z" transform="translate(-70.964 -289.809)"/></g></g><g transform="translate(45.194 6.29)"><g transform="translate(0)"><path class="a" d="M396.383,102.2a.462.462,0,0,1,.632-.169l1.833,1.058a.463.463,0,1,1-.463.8l-1.833-1.058A.463.463,0,0,1,396.383,102.2Z" transform="translate(-396.321 -101.964)"/></g></g><g transform="translate(49.823 1.648)"><g transform="translate(0)"><path class="a" d="M334.075,26.783a.462.462,0,0,1,.632.169l1.058,1.833a.463.463,0,1,1-.8.463l-1.058-1.833A.463.463,0,0,1,334.075,26.783Z" transform="translate(-333.844 -26.721)"/></g></g><g transform="translate(58.551 10.31)"><g transform="translate(0)"><path class="a" d="M167.672,171.447l2.146-1.738-2.146-1.738a.463.463,0,1,1,.582-.719l2.591,2.1a.463.463,0,0,1,0,.719l-2.591,2.1a.463.463,0,0,1-.582-.719Z" transform="translate(-167.5 -167.149)"/></g></g><g transform="translate(51.149 10.31)"><g transform="translate(0)"><path class="a" d="M287.671,169.351l2.591-2.1a.463.463,0,1,1,.582.719l-2.147,1.738,2.147,1.738a.463.463,0,1,1-.582.719l-2.591-2.1a.463.463,0,0,1,0-.719Z" transform="translate(-287.5 -167.151)"/></g></g><g transform="translate(54.726 9.015)"><g transform="translate(0)"><path class="a" d="M225.782,146.185a.463.463,0,0,1,.605.248l2.837,6.785a.463.463,0,1,1-.854.357l-2.837-6.785A.463.463,0,0,1,225.782,146.185Z" transform="translate(-225.498 -146.149)"/></g></g></g></svg>