<svg xmlns="http://www.w3.org/2000/svg" width="16.819" height="16.819" viewBox="0 0 16.819 16.819"><defs><style>.a{fill:#707070;}</style></defs><path class="a" d="M192.077,107.03a1.678,1.678,0,0,0,.092.169c.031.046.077.092.108.138a1.388,1.388,0,0,0,.154.138.518.518,0,0,0,.184.092.761.761,0,0,0,.2.062.946.946,0,0,0,.2.015.877.877,0,0,0,.2-.015.551.551,0,0,0,.169-.062h.015a1.146,1.146,0,0,0,.184-.108,1,1,0,0,0,.138-.123l.015-.015a.845.845,0,0,0,.108-.138.481.481,0,0,0,.077-.154c0-.015,0-.015.015-.031a.994.994,0,0,0,.061-.2,1.307,1.307,0,0,0,0-.4,1.427,1.427,0,0,0-.061-.2.872.872,0,0,0-.184-.277l-.031-.031a1.346,1.346,0,0,0-.154-.123c-.061-.031-.108-.062-.169-.092a.867.867,0,0,0-.184-.062.946.946,0,0,0-.2-.015.877.877,0,0,0-.2.015.867.867,0,0,0-.184.062h-.015a1.674,1.674,0,0,0-.169.092,1.344,1.344,0,0,0-.154.123,1,1,0,0,0-.123.138,1.675,1.675,0,0,0-.092.169.867.867,0,0,0-.062.184.946.946,0,0,0-.015.2.877.877,0,0,0,.015.2A1.4,1.4,0,0,0,192.077,107.03Z" transform="translate(-184.621 -101.541)"/><path class="a" d="M180.367,184.966h-.354V181.2a.4.4,0,0,0-.4-.4H178a.4.4,0,0,0-.4.4v.83a.4.4,0,0,0,.4.4h.323v2.552H178a.4.4,0,0,0-.4.4v.83a.4.4,0,0,0,.4.4h2.368a.4.4,0,0,0,.4-.4v-.83A.41.41,0,0,0,180.367,184.966Z" transform="translate(-170.774 -173.851)"/><path class="a" d="M8.409,0a8.409,8.409,0,1,0,8.409,8.409A8.411,8.411,0,0,0,8.409,0Zm0,15.712a7.3,7.3,0,1,1,7.3-7.3A7.309,7.309,0,0,1,8.409,15.712Z"/></svg>