<svg xmlns="http://www.w3.org/2000/svg" width="26.965" height="22.414" viewBox="0 0 26.965 22.414"><defs><style>.a{fill:#707070;}</style></defs><path class="a" d="M26.281,9.749a8.668,8.668,0,0,0-3.866-2.922V4.873H0V27.287H22.414V10.145a10.164,10.164,0,0,1,3.364.318l1.187.3Zm-4.8,16.6H.934V5.807H21.48v.731A8.5,8.5,0,0,0,20.02,6.3c-.04,0-.081,0-.121-.007-.2-.012-.4-.023-.6-.021-.272,0-.544.011-.817.037a8,8,0,0,0-4.883,2.581L10.737,6.037l.026,9.542,9.542.026L17.4,12.7l.058-.07c.036-.044.074-.089.118-.139s.077-.084.117-.127.085-.088.13-.134.1-.1.155-.153.1-.094.157-.141q.16-.142.348-.288c.061-.048.12-.095.186-.142.081-.059.17-.117.258-.176.065-.043.132-.085.2-.127.1-.059.2-.118.3-.175.071-.039.147-.075.221-.112.191-.1.4-.186.612-.27.092-.036.181-.073.277-.106.12-.041.247-.077.375-.113.111-.032.223-.061.339-.089.075-.018.153-.033.231-.049Zm.934-17.141V9.19l-.528.07A7.762,7.762,0,0,0,16.4,12.481l-.013.02-.191.313,1.85,1.85-6.35-.017L11.677,8.3l1.93,1.93.33-.35a7.5,7.5,0,0,1,4.6-2.634c.267-.025.53-.034.793-.033h.086a7.736,7.736,0,0,1,2.384.4l.433.146a7.88,7.88,0,0,1,2.392,1.523A10.348,10.348,0,0,0,22.414,9.212Z" transform="translate(0 -4.873)"/></svg>