<svg xmlns="http://www.w3.org/2000/svg" width="181.024" height="47.767" viewBox="0 0 181.024 47.767"><defs><style>.a{fill:#fff;}.b{fill:#e3a82b;}.c{fill:#65799e;}</style></defs><g transform="translate(-70.217 -70.178)"><g transform="translate(70.639 70.545)"><path class="a" d="M-28.066,14.431c11.442,0,27.271,6.443,38.756,6.443,8.2,0,16.193-2.187,20.745-5.408a35.052,35.052,0,0,0,.486-5.815A34.821,34.821,0,0,0-2.9-25.17,34.821,34.821,0,0,0-37.722,9.651a35.028,35.028,0,0,0,.475,5.749,56.682,56.682,0,0,1,9.18-.969" transform="translate(37.722 25.17)"/></g><g transform="translate(146.134 79.132)"><g transform="translate(92.983 38.813) rotate(180)"><rect class="b" width="80.544" height="0.977" transform="translate(0 0)"/></g><g transform="translate(12.439 0)"><path class="a" d="M-11.848-3.5a3.968,3.968,0,0,0,.515,2.408A2.539,2.539,0,0,0-9.4-.472c2.182,0,3.85-.883,3.85-3.093,0-1.745-.981-3.778-4.88-3.778-1.324,0-1.423.133-1.423.574Zm0-5.126c0,.619.025.663,1.275.619,2.5-.089,3.851-.752,3.851-2.828,0-2.165-1.791-2.983-3.654-2.983a3.326,3.326,0,0,0-1.128.133c-.245.066-.344.177-.344.574Zm-2.011-2.938c0-1.635-.115-2.068-1.219-2.157l-.768-.053c-.125-.1-.09-.542.025-.552,1.324-.118,2.992-.177,5.273-.177a10.255,10.255,0,0,1,4.121.618,2.892,2.892,0,0,1,1.864,2.762c0,1.591-1.03,2.409-2.5,3.027,0,.221.2.287.466.331a3.793,3.793,0,0,1,3.286,3.69c0,2.563-2.109,4.286-6.524,4.286-.711,0-1.913-.067-2.943-.067-1.079,0-1.913.045-2.82.067A.4.4,0,0,1-15.65-.34l.442-.066c1.3-.2,1.349-.442,1.349-2.762Z" transform="translate(15.925 14.502)"/></g><g transform="translate(40.218 2.188)"><path class="a" d="M-5.458-34.751c0-2-.042-2.321-1.278-2.415L-7.26-37.2c-.126-.076-.083-.415.042-.472,1.047.038,1.76.057,2.639.057.838,0,1.55-.019,2.6-.057.126.057.167.4.042.472l-.523.038c-1.236.094-1.278.415-1.278,2.415v6.719c0,2,.041,2.265,1.278,2.4l.523.056c.125.076.084.415-.042.472-1.047-.038-1.759-.057-2.6-.057-.88,0-1.592.019-2.639.057a.34.34,0,0,1-.042-.472l.524-.056c1.236-.132,1.278-.4,1.278-2.4Z" transform="translate(7.335 37.676)"/></g><g transform="translate(46.632 1.624)"><path class="a" d="M-20.595-.953c0,1.981.039,2.265,1.178,2.359l.628.057c.117.075.078.415-.039.472-1.119-.038-1.786-.057-2.572-.057s-1.472.019-2.728.057a.32.32,0,0,1,0-.472l.706-.057C-22.3,1.312-22.2,1.029-22.2-.953V-9.389c0-.585,0-.6-.588-.6h-1.079a4.154,4.154,0,0,0-2.414.471,3.434,3.434,0,0,0-.883,1.3.388.388,0,0,1-.51-.132,19.247,19.247,0,0,0,.745-2.812.51.51,0,0,1,.373,0c.118.6.766.585,1.669.585h7.949c1.06,0,1.236-.038,1.531-.528.1-.038.315-.019.353.056a10.987,10.987,0,0,0-.294,2.869c-.079.151-.412.151-.51.038-.059-.472-.2-1.17-.491-1.378a4.035,4.035,0,0,0-2.277-.471h-1.393c-.589,0-.57.018-.57.641Z" transform="translate(27.68 11.198)"/></g><g transform="translate(60.252 2.188)"><path class="a" d="M-5.457-34.751c0-2-.042-2.321-1.278-2.415l-.524-.038c-.125-.076-.083-.415.042-.472,1.047.038,1.76.057,2.64.057.838,0,1.55-.019,2.6-.057.126.057.168.4.042.472l-.524.038c-1.236.094-1.277.415-1.277,2.415v6.719c0,2,.041,2.265,1.277,2.4l.524.056c.125.076.083.415-.042.472-1.047-.038-1.759-.057-2.6-.057-.88,0-1.592.019-2.64.057a.341.341,0,0,1-.042-.472l.524-.056c1.236-.132,1.278-.4,1.278-2.4Z" transform="translate(7.335 37.676)"/></g><g transform="translate(67.441 1.891)"><path class="a" d="M-11.846,13.06a7.946,7.946,0,0,1-3.474-.7,7.564,7.564,0,0,1-.6-2.642c.112-.132.445-.17.534-.057a3.859,3.859,0,0,0,3.831,2.812c1.871,0,2.784-1.038,2.784-2.17,0-.83-.2-1.755-1.826-2.642l-2.115-1.17c-1.113-.623-2.405-1.7-2.405-3.246C-15.12,1.453-13.472,0-10.577,0A10.067,10.067,0,0,1-8.506.245a3.485,3.485,0,0,0,.779.113,7.107,7.107,0,0,1,.4,2.3.5.5,0,0,1-.557.057A2.8,2.8,0,0,0-10.911.585c-2.183,0-2.65,1.227-2.65,2.095,0,1.095,1.069,1.888,1.893,2.322l1.781.944c1.4.736,2.784,1.83,2.784,3.624,0,2.076-1.848,3.491-4.743,3.491" transform="translate(15.922)"/></g><g transform="translate(78.245 2.188)"><path class="a" d="M-13.023-17.619c-.974,0-1.015.038-1.015.6v2.661c0,1.981.1,2.246,1.239,2.359l.588.056c.122.076.081.415-.04.472-1.1-.038-1.787-.057-2.579-.057-.873,0-1.564.038-2.356.057a.348.348,0,0,1-.04-.472l.345-.056c1.138-.189,1.178-.378,1.178-2.359v-6.794c0-1.982-.141-2.3-1.2-2.378l-.528-.038c-.122-.076-.081-.415.04-.472.995.019,1.685.057,2.559.057.792,0,1.483-.019,2.356-.057.122.057.162.4.041.472l-.387.038c-1.177.113-1.218.4-1.218,2.378v2.17c0,.585.04.6,1.015.6h5.808c.975,0,1.015-.019,1.015-.6v-2.17c0-1.982-.04-2.265-1.238-2.378l-.386-.038c-.122-.076-.081-.415.041-.472.934.038,1.625.057,2.457.057.792,0,1.482-.019,2.4-.057.122.057.162.4.04.472l-.426.038c-1.178.113-1.219.4-1.219,2.378v6.794c0,1.981.041,2.227,1.219,2.359l.487.056c.122.076.081.415-.04.472-.976-.038-1.666-.057-2.458-.057-.832,0-1.564.019-2.457.057a.347.347,0,0,1-.041-.472l.386-.056C-6.2-12.184-6.2-12.373-6.2-14.354v-2.661c0-.566-.04-.6-1.015-.6Z" transform="translate(17.503 24.036)"/></g><g transform="translate(0 16.967)"><path class="a" d="M-8.375-52.1A9.879,9.879,0,0,1-2.2-54.034a17.694,17.694,0,0,1,4.047.547,1.725,1.725,0,0,0,.64.091c.023.524.137,1.959.32,3.349A.483.483,0,0,1,2.189-50C1.846-51.55.817-53.328-2.5-53.328c-3.5,0-6.471,2.211-6.471,6.927,0,4.785,3.041,7.428,6.791,7.428A4.873,4.873,0,0,0,2.6-42.232a.482.482,0,0,1,.595.091,8.542,8.542,0,0,1-1.1,3.122,4.663,4.663,0,0,0-.8.227,13.487,13.487,0,0,1-3.613.524,10.04,10.04,0,0,1-5.694-1.527,7.337,7.337,0,0,1-3.247-6.265A7.56,7.56,0,0,1-8.375-52.1" transform="translate(11.256 54.034)"/></g><g transform="translate(15.387 19.612)"><path class="a" d="M-34.732-16.388c0-3.114-1.446-6.473-5.231-6.473-2.061,0-4.736,1.34-4.736,5.473,0,2.793,1.427,6.417,5.33,6.417,2.378,0,4.637-1.7,4.637-5.417m-11.949-.4c0-3.775,2.973-6.662,7.055-6.662,4.577,0,6.876,3.151,6.876,6.473a6.61,6.61,0,0,1-6.876,6.587c-4.4,0-7.055-3-7.055-6.4" transform="translate(46.681 23.446)"/></g><g transform="translate(40.199 19.857)"><path class="a" d="M-33.355-26.541a12.846,12.846,0,0,0-.38-3.907,1.271,1.271,0,0,0-1-.4l-.5-.038a.328.328,0,0,1,.04-.453c.76.038,1.5.057,2.281.057.84,0,1.381-.019,2.1-.056a.313.313,0,0,1,.04.453l-.48.038a1.193,1.193,0,0,0-1,.453,15.937,15.937,0,0,0-.28,3.85v2.132a6.316,6.316,0,0,1-1.4,4.51,5.446,5.446,0,0,1-3.821,1.378A5.929,5.929,0,0,1-41.5-19.558c-1.06-.83-1.56-2.208-1.56-4.454v-4.454c0-1.963-.04-2.284-1.2-2.378l-.5-.038c-.12-.076-.08-.4.039-.453,1,.038,1.681.057,2.481.057.82,0,1.48-.019,2.46-.056.12.057.16.377.04.453l-.48.038c-1.16.095-1.2.416-1.2,2.378v4.077c0,3.038,1,5.039,4.061,5.039,2.9,0,4-2.152,4-5.02Z" transform="translate(44.831 31.335)"/></g><g transform="translate(73.06 19.759)"><path class="a" d="M-10.692-3.017A3.306,3.306,0,0,0-10.228-.94a2.357,2.357,0,0,0,1.747.534c1.968,0,3.471-.763,3.471-2.669,0-1.506-.884-3.259-4.4-3.259-1.194,0-1.282.114-1.282.5Zm0-4.423c0,.534.022.572,1.149.534,2.256-.076,3.472-.648,3.472-2.44,0-1.868-1.614-2.574-3.295-2.574a3.113,3.113,0,0,0-1.017.115c-.221.057-.309.152-.309.5Zm-1.813-2.535c0-1.411-.089-1.773-1.083-1.849l-.708-.069c-.08-.073-.123-.455.022-.465,1.194-.089,2.7-.152,4.754-.152a9.631,9.631,0,0,1,3.715.533,2.5,2.5,0,0,1,1.68,2.383c0,1.372-.929,2.078-2.255,2.611,0,.191.176.248.42.286A3.335,3.335,0,0,1-3-3.513C-3-1.3-4.9.185-8.879.185-9.52.185-10.6.128-11.532.128c-.973,0-1.725.038-2.543.057a.333.333,0,0,1-.045-.476l.4-.057c1.172-.171,1.216-.381,1.216-2.383Z" transform="translate(14.37 12.51)"/></g><g transform="translate(26.329 2.052)"><path class="a" d="M-14.327-20.038c-.38,0-1.141.142-1.141-.363v-3.62c0-1.415.045-1.618,1.745-1.618,1.99,0,3.221,1.011,3.221,2.871a2.374,2.374,0,0,1-1.029,2.063,4.613,4.613,0,0,1-2.8.667m7.635,6.2-.524-.045c-.106-.011-.2-.025-.29-.039-.766-.136-1.073-.818-1.434-1.451l-1.811-3.155c-.313-.526-.648-1.234-1.364-1.334,1.856-.223,3.534-1.294,3.534-3.134,0-2.124-2.1-3.074-4.227-3.074-1.275,0-2.437.035-3.734.035-.715,0-1.567-.035-2.282-.035-.4,0-.4.081-.4.3,0,.328.138.236.56.26,1.511.085,1.453.367,1.453,1.661v8.271c0,1.184.1,1.537-1.14,1.648l-.3.031-.527.054a.34.34,0,0,0,.042.471l.776-.03c.688-.02,1.376-.073,2.064-.073s1.354.053,2.034.073h0l.776.026a.339.339,0,0,0,.042-.471l-.53-.05c-.108-.012-.294-.028-.294-.028-1.255-.085-1.178-.439-1.178-1.653v-3.114c0-.182-.023-.667.112-.809.112-.122.313-.1.492-.1,1.7,0,1.677.162,2.483,1.578l2.192,3.943c.179.3.313.688.761.688h1.9l.771.026a.34.34,0,0,0,.042-.471" transform="translate(19.255 26.07)"/></g><g transform="translate(29.725 19.903)"><path class="a" d="M-5.649-34.935c0-1.981-.041-2.284-1.349-2.378l-.519-.038c-.124-.076-.083-.415.041-.472,1.163.038,1.868.057,2.7.057.81,0,1.515-.019,2.554-.056.124.056.166.4.041.471l-.5.038c-1.225.094-1.267.4-1.267,2.378v6.568c0,1.189.063,1.68.436,2.038.228.207.623.434,2.263.434a5.908,5.908,0,0,0,2.533-.245,4.048,4.048,0,0,0,1.37-1.869c.125-.094.519-.019.519.113A14.109,14.109,0,0,1,2.3-25.254c-1.058-.038-3.031-.057-5.169-.057h-1.91c-.872,0-1.536.019-2.7.057a.342.342,0,0,1-.041-.472l.623-.056c1.2-.113,1.245-.378,1.245-2.359Z" transform="translate(7.592 37.823)"/></g><g transform="translate(85.455 19.902)"><path class="a" d="M-5.309-34.752c0-2-.04-2.321-1.243-2.416l-.51-.037c-.122-.076-.081-.415.041-.472,1.019.038,1.711.057,2.568.057.815,0,1.508-.019,2.528-.056.122.057.163.4.04.471l-.51.037c-1.2.094-1.243.416-1.243,2.416v6.719c0,2,.04,2.265,1.243,2.4l.51.057c.122.076.081.415-.04.472-1.02-.038-1.712-.057-2.528-.057-.856,0-1.549.019-2.568.057a.347.347,0,0,1-.041-.472l.51-.057c1.2-.132,1.243-.4,1.243-2.4Z" transform="translate(7.135 37.677)"/></g><g transform="translate(54.664 19.885)"><path class="a" d="M-47.467,9.973c-.1-.011-.3-.027-.3-.027a.794.794,0,0,1-.56-.219c-.265-.281-.243-1.082-.243-1.4V.056c0-.361-.088-1.141.177-1.422a.986.986,0,0,1,.652-.186h0c.149-.011.152-.012.283-.018l.524-.037c.125-.076.083-.415-.042-.472-.28.01-.534.006-.776.014h-2.227c-.242,0-.463,0-.595.26l-4.537,9.451-4.008-9.131c-.133-.32-.154-.581-.573-.581H-62.01c-.242-.007-.508,0-.788-.015-.125.057-.168.4-.042.472l.524.037.3.022c.869.056.923.25.844,1.165l-.683,8.87c-.06.891-.109,1.362-1.042,1.448,0,0-.2.025-.305.036l-.523.057a.339.339,0,0,0,.042.471c.276-.01.767-.025.767-.025.473-.023.955-.065,1.436-.065.52,0,1.04.049,1.56.07h0l.776.026a.339.339,0,0,0,.042-.471l-.523-.057c-.138-.011-.293-.026-.293-.026-1.346-.092-1.316-1.043-1.232-2.205l.639-8.25h.154l4.339,10.152c.044.14.11.38.33.38.2,0,.265-.22.33-.361l4.89-10.413h.154V8.326c0,.36.044,1.1-.33,1.381a2.75,2.75,0,0,1-.832.233c-.087.014-.179.027-.284.038l-.523.056a.34.34,0,0,0,.042.472l.765-.025c.71-.02,1.431-.072,2.153-.072.519,0,1.535.049,1.535.049.242.007.518.034.8.044a.339.339,0,0,0,.042-.471Z" transform="translate(63.797 2.081)"/></g><g transform="translate(91.925 19.713)"><path class="a" d="M-22.106-12.525h-2.451c-.085,0-.767.08-.767-.12a.986.986,0,0,1,.064-.24l1.471-3.642c.042-.1.191-.6.362-.6.128,0,.3.52.341.6l1.449,3.4c0,.04.149.36.149.441,0,.22-.49.16-.618.16m5.5,4.671-.07-.057c-.1-.011-.2-.024-.285-.038-.816-.182-1.134-1.165-1.436-1.866l-4.2-9.94c-.042-.119-.125-.377-.292-.377-.229,0-.291.277-.353.435l-4.012,9.921a6.6,6.6,0,0,1-.79,1.564,1.15,1.15,0,0,1-.765.283s-.226.022-.334.033l-.494.05a.341.341,0,0,0,.042.472l.776-.028c.549-.007,1.1-.077,1.647-.077.462,0,.924.049,1.386.07l.776.028a.341.341,0,0,0,.042-.472l-.524-.057-.284-.028c-.483-.053-1.084-.14-1.084-.671A3.274,3.274,0,0,1-26.567-9.7l.624-1.485c.313-.713.187-.792,1.019-.792H-22.1c1,0,.852,0,1.289,1.011l.665,1.5a3.275,3.275,0,0,1,.291.971c0,.5-.543.53-1.051.573l-.314.025-.5.037a.34.34,0,0,0,.042.472l.776-.03c.592-.021,1.187-.067,1.758-.067.728,0,1.457.049,2.185.07h0c.239.007.037.016.314.026a.341.341,0,0,0,.042-.472" transform="translate(29.712 20.131)"/></g></g><g transform="translate(127.981 95.75)"><path class="b" d="M0-.671,1.377-.1,4.43-2.23Z" transform="translate(0 2.23)"/></g><g transform="translate(71 70.178)"><path class="b" d="M-16.5,12.632l-3.619-1.273.181-.443,4.076,1.359.018-.01.538-.3.215-.134-4.444-1.891.188-.465,9.92,4.012.327-.136-9.838-4.794.219-.451L-8.3,12.954l.144-.073L-18.261,7.147l.208-.431,14.6,7.943c.12-.221.37-.624.5-.84A129.977,129.977,0,0,0-13.863,4.683,130.019,130.019,0,0,0-1.558,11.8c.224-.28.409-.505.649-.771L-13.363.066l.334-.343L-2.977,8.289l-9.312-9.325.349-.361,10.455,10.1-9.732-10.8.372-.336L-1.851,7.2-10.06-3.143l.353-.321L.817,9.342c.272-.235.5-.411.783-.629A129.969,129.969,0,0,0-5.06-3.779,129.975,129.975,0,0,0,3.632,7.371c.3-.172.614-.336.93-.491l-.053-.034L-2.866-7.873l.438-.193L3.683,3.642-1.458-8.493-1-8.7,4.909,4.588-.068-9.073.4-9.245l4.732,12.3L1.4-9.611l.449-.165,4.92,15.71-.009.041.012,0c.327-.11.66-.207.994-.3a130.02,130.02,0,0,0-1.491-14A130.019,130.019,0,0,0,10.133,5.2c.345-.042.692-.079,1.043-.1l-.011-.016h.043l-.025-.036L9.858-11.36l.479-.015L11.616,1.77,11.4-11.407l.5-.017.5,14.53.5-14.531.5.017L13.182,1.77l1.28-13.144.478.015L13.616,5.049l-.025.036H13.6l0,.005h.022c.342.022.682.056,1.019.1A129.953,129.953,0,0,0,18.491-8.328,130.041,130.041,0,0,0,17,5.639q.507.134,1,.3l4.9-15.656.449.166L19.617,3.111l4.732-12.3.47.172L19.842,4.644,25.751-8.641l.459.2L21.069,3.7,27.179-8.01l.438.193L20.269,6.849l.013.005c.3.147.6.3.893.468a129.958,129.958,0,0,0,8.649-11.1A130.011,130.011,0,0,0,23.2,8.641q.425.321.83.665l10.4-12.667.355.322L26.571,7.3l9-9.632.371.336L26.206,8.81,36.66-1.294l.349.361L27.7,8.393,37.749-.173l.334.342-12.3,10.84.007.007c.215.239.422.486.625.737A130.037,130.037,0,0,0,38.626,4.683,129.935,129.935,0,0,0,27.8,13.744c.151.252.4.683.535.944L42.727,6.852l.208.431L31.448,13.8,43.4,8.238l.219.451L32.486,14.111l.213.074,11.324-4.58.188.465L33.686,14.548l.2.082L40.9,12.291l1.057-.738.351.268,2.308-.769.181.443-2,.7,2.885,2.2.925.516a35.276,35.276,0,0,0-68.786.821l.13-.062.423-.191.259-.121Z" transform="translate(22.179 12.12)"/></g><g transform="translate(70.217 94.542)"><path class="c" d="M-1.7-3.793A58.07,58.07,0,0,1,7.849-4.832c11.442,0,27.271,6.443,38.756,6.443,8.425,0,16.642-2.311,21.12-5.681a35.476,35.476,0,0,0,.533-6.138,35.346,35.346,0,0,0-.969-8.235L62.5-21.112l-5.618,3.94L53.1-18.644c-1.279.647-9.172,5.925-9.172,5.925L40.9-14.912l-3.25-.644-4.334-3.155L28.347-15.3S22.8-12.077,22.61-12.077s-6.692-5.153-6.692-5.153l-3-3.155c-.51.322-2.547,1.257-2.547,1.257l-.1.028L8.3-19.711,5.9-20.981l-7.272,3.3-.13.063a35.387,35.387,0,0,0-.783,7.414A35.449,35.449,0,0,0-1.7-3.793" transform="translate(2.28 21.112)"/></g></g></svg>