<svg xmlns="http://www.w3.org/2000/svg" width="22.627" height="30.189" viewBox="0 0 22.627 30.189"><defs><style>.a{fill:#707070;}</style></defs><g transform="translate(-234.864 -1146.487)"><path class="a" d="M85.841,4.254h-.976V3.278a.916.916,0,0,0-.915-.915H78.133a.915.915,0,0,0-.8-.473h-6.69a2.333,2.333,0,0,0-4.581,0H65.044a.916.916,0,0,0-.915.915V15.095a.915.915,0,0,0,.473.8V27.384a.916.916,0,0,0,.915.915h.976v.976a.916.916,0,0,0,.915.915H85.841a.916.916,0,0,0,.915-.915V5.169A.916.916,0,0,0,85.841,4.254ZM65.013,2.806a.03.03,0,0,1,.03-.03h.976V7.06a2.333,2.333,0,1,0,4.666,0V5.169a1.388,1.388,0,0,0-2.775,0v.945a.442.442,0,0,0,.884,0V5.169a.5.5,0,0,1,1.006,0V7.059a1.448,1.448,0,1,1-2.9,0V2.333h0a1.448,1.448,0,0,1,2.828-.441H68.352a.442.442,0,1,0,0,.884h8.981a.03.03,0,0,1,.03.03V15.095a.03.03,0,0,1-.03.03H65.044a.03.03,0,0,1-.03-.03ZM85.871,29.274a.03.03,0,0,1-.03.03H67.407a.03.03,0,0,1-.03-.03V28.3h12.4a1.378,1.378,0,0,0,.981-.406l3.7-3.7a1.378,1.378,0,0,0,.406-.981V7.532a.442.442,0,1,0-.884,0V23.16H80.642a.916.916,0,0,0-.915.915v3.339H65.517a.03.03,0,0,1-.03-.03V16.01H77.333a.916.916,0,0,0,.915-.915V3.248h5.7a.03.03,0,0,1,.03.03V5.642a.442.442,0,1,0,.884,0v-.5h.976a.03.03,0,0,1,.03.03V29.274Zm-5.26-2.485V24.075a.03.03,0,0,1,.03-.03h2.714Z" transform="translate(170.735 1146.487)"/><path class="a" d="M200.845,105.093h2.363a.442.442,0,0,0,0-.884h-2.363a.442.442,0,1,0,0,.884Z" transform="translate(42.497 1048.423)"/><path class="a" d="M200.845,145.175h2.363a.442.442,0,0,0,0-.884h-2.363a.442.442,0,1,0,0,.884Z" transform="translate(42.497 1010.704)"/><path class="a" d="M112.668,185.255h7.563a.442.442,0,0,0,0-.884h-7.563a.442.442,0,0,0,0,.884Z" transform="translate(125.474 972.987)"/><path class="a" d="M338.064,184.371h-.945a.442.442,0,1,0,0,.884h.945a.442.442,0,1,0,0-.884Z" transform="translate(-85.742 972.987)"/><path class="a" d="M338.064,104.209h-.945a.442.442,0,1,0,0,.884h.945a.442.442,0,1,0,0-.884Z" transform="translate(-85.742 1048.423)"/><path class="a" d="M338.064,144.291h-.945a.442.442,0,1,0,0,.884h.945a.442.442,0,1,0,0-.884Z" transform="translate(-85.742 1010.704)"/><path class="a" d="M338.064,224.452h-.945a.442.442,0,1,0,0,.884h.945a.442.442,0,1,0,0-.884Z" transform="translate(-85.742 935.27)"/><path class="a" d="M121.629,296.6h-.945a.442.442,0,0,0,0,.884h.945a.442.442,0,0,0,0-.884Z" transform="translate(117.932 867.379)"/><path class="a" d="M121.629,376.758h-.945a.442.442,0,1,0,0,.884h.945a.442.442,0,1,0,0-.884Z" transform="translate(117.932 791.944)"/><path class="a" d="M121.629,336.677h-.945a.442.442,0,1,0,0,.884h.945a.442.442,0,1,0,0-.884Z" transform="translate(117.932 829.662)"/><path class="a" d="M187.2,296.6H176.8a.442.442,0,0,0,0,.884h10.4a.442.442,0,1,0,0-.884Z" transform="translate(65.127 867.379)"/><path class="a" d="M183.414,376.758H176.8a.442.442,0,1,0,0,.884h6.617a.442.442,0,1,0,0-.884Z" transform="translate(65.127 791.944)"/><path class="a" d="M187.2,336.677H176.8a.442.442,0,1,0,0,.884h10.4a.442.442,0,1,0,0-.884Z" transform="translate(65.127 829.662)"/></g></svg>