<svg xmlns="http://www.w3.org/2000/svg" width="23.133" height="27.868" viewBox="0 0 23.133 27.868"><defs><style>.a{fill:#707070;}</style></defs><g transform="translate(0 0)"><g transform="translate(5.121 3.34)"><g transform="translate(0)"><path class="a" d="M114.48,64.742a7.727,7.727,0,1,1,12.095,9.568L125.4,75.9a.408.408,0,0,1-.657-.485l1.188-1.611a.382.382,0,0,1,.026-.031,6.973,6.973,0,0,0-.257-9.6,6.822,6.822,0,0,0-4.844-2h-.035a6.876,6.876,0,0,0-5.663,3.025.408.408,0,1,1-.676-.458Z" transform="translate(-114.41 -61.358)"/></g></g><g transform="translate(3.86 8.056)"><path class="a" d="M204.461,392h0Z" transform="translate(-193.944 -378.72)"/><path class="a" d="M177,148.27a.408.408,0,0,1,.764.289,7,7,0,0,0,1.346,7.158.4.4,0,0,1,.026.032l.274.372.975,1.324a.412.412,0,0,1,.026.04,19.479,19.479,0,0,1,1.363,2.985h4.858c.187-.52.4-1.036.624-1.537a.408.408,0,1,1,.743.338c-.2.441-.367.853-.5,1.2h.022a.408.408,0,0,1,.408.408V162.1h.191a.408.408,0,0,1,.408.408v1.633a.408.408,0,0,1-.408.408h-.191v1.225a.408.408,0,0,1-.408.408h-.27l-.286,1.312a.408.408,0,0,1-.4.321h-4.73a.408.408,0,0,1-.4-.321l-.286-1.312h-.27a.408.408,0,0,1-.408-.408v-1.225h-.19a.408.408,0,0,1-.408-.408v-1.633a.408.408,0,0,1,.408-.408h.19v-1.225a.408.408,0,0,1,.408-.408h.021a18.42,18.42,0,0,0-1.19-2.56l-.961-1.305-.262-.356A7.82,7.82,0,0,1,177,148.27ZM182.17,167h4.073l.178-.816h-4.429Zm-.876-1.633h5.824v-.816h-5.824Zm-.6-2.449v.816h7.021v-.816h-1.76a.408.408,0,1,1,0-.816h1.161v-.816h-5.824v.816h2.912a.408.408,0,1,1,0,.816Z" transform="translate(-176.5 -148.006)"/><path class="a" d="M305.959,392h0Z" transform="translate(-301.067 -378.72)"/></g><g transform="translate(11.158)"><g transform="translate(0)"><path class="a" d="M248.908,0a.408.408,0,0,1,.408.408V2.276a.408.408,0,0,1-.816,0V.408A.408.408,0,0,1,248.908,0Z" transform="translate(-248.5)"/></g></g><g transform="translate(15.803 1.495)"><g transform="translate(0)"><path class="a" d="M146.054,29.294l.934-1.617a.408.408,0,1,1,.707.408l-.934,1.617a.408.408,0,1,1-.707-.408Z" transform="translate(-145.999 -27.473)"/></g></g><g transform="translate(19.204 5.573)"><g transform="translate(0)"><path class="a" d="M71.168,103.386l1.617-.934a.408.408,0,1,1,.408.707l-1.617.934a.408.408,0,0,1-.408-.707Z" transform="translate(-70.964 -102.397)"/></g></g><g transform="translate(1.495 15.798)"><g transform="translate(0)"><path class="a" d="M396.525,291.231l1.617-.934a.408.408,0,1,1,.408.707l-1.617.934a.408.408,0,1,1-.408-.707Z" transform="translate(-396.321 -290.243)"/></g></g><g transform="translate(20.449 11.142)"><g transform="translate(0)"><path class="a" d="M43.908,204.7h1.867a.408.408,0,1,1,0,.816H43.908a.408.408,0,1,1,0-.816Z" transform="translate(-43.5 -204.7)"/></g></g><g transform="translate(0 11.142)"><path class="a" d="M419.6,204.7h1.867a.408.408,0,0,1,0,.816H419.6a.408.408,0,1,1,0-.816Z" transform="translate(-419.19 -204.7)"/></g><g transform="translate(19.204 15.774)"><g transform="translate(0)"><path class="a" d="M71.019,290.013a.408.408,0,0,1,.558-.149l1.617.934a.408.408,0,1,1-.408.707l-1.617-.934A.408.408,0,0,1,71.019,290.013Z" transform="translate(-70.964 -289.809)"/></g></g><g transform="translate(1.495 5.55)"><g transform="translate(0)"><path class="a" d="M396.376,102.169a.408.408,0,0,1,.558-.149l1.617.934a.408.408,0,1,1-.408.707l-1.617-.934A.408.408,0,0,1,396.376,102.169Z" transform="translate(-396.321 -101.964)"/></g></g><g transform="translate(5.579 1.454)"><g transform="translate(0)"><path class="a" d="M334.048,26.776a.408.408,0,0,1,.558.149l.934,1.617a.408.408,0,1,1-.707.408l-.934-1.617A.408.408,0,0,1,334.048,26.776Z" transform="translate(-333.844 -26.721)"/></g></g><g transform="translate(13.281 9.098)"><g transform="translate(0)"><path class="a" d="M167.651,170.942l1.894-1.533-1.894-1.533a.408.408,0,1,1,.514-.635l2.286,1.851a.408.408,0,0,1,0,.635l-2.286,1.851a.408.408,0,0,1-.514-.635Z" transform="translate(-167.5 -167.149)"/></g></g><g transform="translate(6.749 9.098)"><g transform="translate(0)"><path class="a" d="M287.651,169.092l2.286-1.851a.408.408,0,1,1,.514.635l-1.894,1.533,1.894,1.533a.408.408,0,1,1-.514.635l-2.286-1.851a.408.408,0,0,1,0-.635Z" transform="translate(-287.5 -167.151)"/></g></g><g transform="translate(9.906 7.955)"><g transform="translate(0)"><path class="a" d="M225.749,146.18a.408.408,0,0,1,.534.219l2.5,5.987a.408.408,0,1,1-.753.315l-2.5-5.987A.408.408,0,0,1,225.749,146.18Z" transform="translate(-225.498 -146.149)"/></g></g></g></svg>